<?xml version="1.0" encoding="utf-8"?>
<!DOCTYPE svg PUBLIC "-//W3C//DTD SVG 1.1//EN" "http://www.w3.org/Graphics/SVG/1.1/DTD/svg11.dtd">
<svg version="1.1" id="Ebene_1" xmlns:ev="http://www.w3.org/2001/xml-events"
	 xmlns="http://www.w3.org/2000/svg" xmlns:xlink="http://www.w3.org/1999/xlink" x="0px" y="0px" width="48px" height="48px"
	 viewBox="0 0 48 48" enable-background="new 0 0 48 48" xml:space="preserve">
<g>
	<g>
		<path fill="none" stroke="#FFFFFF" stroke-width="10.5" stroke-linecap="round" d="M35.299,32.518c0-6.076,0-6.076-11.429-6.076"
			/>
		<path fill="none" stroke="#FFFFFF" stroke-width="10.5" stroke-linecap="round" d="M23.871,26.441c11.43,0,11.43,0,11.43-11.547"
			/>
		<path fill="none" stroke="#FFFFFF" stroke-width="10.5" stroke-linecap="round" d="M12.442,32.029c0-5.588,0-5.588,11.429-5.588"
			/>
		<path fill="none" stroke="#FFFFFF" stroke-width="10.5" stroke-linecap="round" d="M23.871,26.441
			c-11.429,0-11.429,0-11.429-16.381"/>
		<path fill="none" stroke="#FFFFFF" stroke-width="10.5" stroke-linecap="round" d="M43.601,43.699c0-7.469,0-7.469-19.6-7.469"/>
		<path fill="none" stroke="#FFFFFF" stroke-width="10.5" stroke-linecap="round" d="M24.001,36.23c19.6,0,19.6,0,19.6-11.969"/>
		<path fill="none" stroke="#FFFFFF" stroke-width="10.5" stroke-linecap="round" d="M4.401,43.072c0-6.842,0-6.842,19.601-6.842"/>
		<path fill="none" stroke="#FFFFFF" stroke-width="10.5" stroke-linecap="round" d="M24.001,36.23c-19.602,0-19.602,0-19.602-9.539
			"/>
		<path fill="none" stroke="#FFFFFF" stroke-width="10.5" stroke-linecap="round" d="M20.256,22.396V6.611"/>
		<path fill="none" stroke="#FFFFFF" stroke-width="10.5" stroke-linecap="round" d="M27.956,20.156V4.371"/>
	</g>
	<g>
		<path fill="none" stroke="#000000" stroke-width="2.184" d="M35.299,32.449c0-6.078,0-6.078-11.429-6.078"/>
		<path fill="none" stroke="#000000" stroke-width="2.184" d="M23.871,26.371c11.43,0,11.43,0,11.43-11.547"/>
		<path fill="none" stroke="#000000" stroke-width="2.184" d="M12.442,31.959c0-5.588,0-5.588,11.429-5.588"/>
		<path fill="none" stroke="#000000" stroke-width="2.184" d="M23.871,26.371c-11.429,0-11.429,0-11.429-16.381"/>
		<path fill="none" stroke="#000000" stroke-width="2.184" d="M43.601,43.629c0-7.467,0-7.467-19.6-7.467"/>
		<path fill="none" stroke="#000000" stroke-width="2.184" d="M24.001,36.162c19.6,0,19.6,0,19.6-11.969"/>
		<path fill="none" stroke="#000000" stroke-width="2.184" d="M4.401,43.002c0-6.84,0-6.84,19.601-6.84"/>
		<path fill="none" stroke="#000000" stroke-width="2.184" d="M24.001,36.162c-19.6,0-19.6,0-19.6-9.539"/>
		<path fill="none" stroke="#000000" stroke-width="2.184" d="M20.256,22.326V6.541"/>
		<path fill="none" stroke="#000000" stroke-width="2.184" d="M27.956,20.086V4.301"/>
	</g>
</g>
</svg>
