<?xml version="1.0" encoding="utf-8"?>
<!DOCTYPE svg PUBLIC "-//W3C//DTD SVG 1.1//EN" "http://www.w3.org/Graphics/SVG/1.1/DTD/svg11.dtd">
<svg version="1.1" id="Ebene_1" xmlns:ev="http://www.w3.org/2001/xml-events"
	 xmlns="http://www.w3.org/2000/svg" xmlns:xlink="http://www.w3.org/1999/xlink" x="0px" y="0px" width="600px" height="560px"
	 viewBox="0 0 600 560" enable-background="new 0 0 600 560" xml:space="preserve">
<path fill="none" stroke="#000000" stroke-width="31.2" d="M461.411,402.103c0-86.818,0-86.818-163.27-86.818"/>
<path fill="none" stroke="#000000" stroke-width="31.2" d="M298.141,315.283c163.27,0,163.27,0,163.27-164.951"/>
<path fill="none" stroke="#000000" stroke-width="31.2" d="M134.871,395.107c0-79.822,0-79.822,163.27-79.822"/>
<path fill="none" stroke="#000000" stroke-width="31.2" d="M298.141,315.283c-163.27,0-163.27,0-163.27-234.02"/>
<path fill="none" stroke="#000000" stroke-width="31.2" d="M580,561.822c0-106.679,0-106.679-280-106.679"/>
<path fill="none" stroke="#000000" stroke-width="31.2" d="M300,455.143c280,0,280,0,280-170.979"/>
<path fill="none" stroke="#000000" stroke-width="31.2" d="M20,552.874c0-97.729,0-97.729,280-97.73"/>
<path fill="none" stroke="#000000" stroke-width="31.2" d="M300,455.142c-280,0.001-280,0.001-280-136.268"/>
<path fill="none" stroke="#000000" stroke-width="31.2" d="M246.5,257.5V32"/>
<path fill="none" stroke="#000000" stroke-width="31.2" d="M356.5,225.5V0"/>
</svg>
